HIERARCHY
ROOT Hips
{
    OFFSET 0.000000 0.000000 0.000000
    CHANNELS 6 Xposition Yposition Zposition Zrotation Xrotation Yrotation
    JOINT Spine
    {
        OFFSET -0.000000 7.810951 0.000000
        CHANNELS 3 Zrotation Xrotation Yrotation
        JOINT Spine1
        {
            OFFSET -0.000000 18.868288 0.000000
            CHANNELS 3 Zrotation Xrotation Yrotation
            JOINT Neck
            {
                OFFSET -0.000000 18.790800 1.708255
                CHANNELS 3 Zrotation Xrotation Yrotation
                JOINT Head
                {
                    OFFSET -0.000000 13.335769 -1.905110
                    CHANNELS 3 Zrotation Xrotation Yrotation
                    End Site
                    {
                        OFFSET -0.000000 23.813873 0.000000
                    }
                }
            }
            JOINT LeftShoulder
            {
                OFFSET 3.868973 15.461964 -0.252686
                CHANNELS 3 Zrotation Xrotation Yrotation
                JOINT LeftArm
                {
                    OFFSET 15.258958 0.000000 0.000000
                    CHANNELS 3 Zrotation Xrotation Yrotation
                    JOINT LeftForeArm
                    {
                        OFFSET 27.600050 0.000000 0.000000
                        CHANNELS 3 Zrotation Xrotation Yrotation
                        JOINT LeftHand
                        {
                            OFFSET 23.737446 0.000000 0.000000
                            CHANNELS 3 Zrotation Xrotation Yrotation
                            End Site
                            {
                                OFFSET 14.288324 0.000000 0.000000
                            }
                        }
                    }
                }
            }
            JOINT RightShoulder
            {
                OFFSET -3.750262 15.461964 -0.252686
                CHANNELS 3 Zrotation Xrotation Yrotation
                JOINT RightArm
                {
                    OFFSET -15.258958 0.000000 0.000000
                    CHANNELS 3 Zrotation Xrotation Yrotation
                    JOINT RightForeArm
                    {
                        OFFSET -27.600050 0.000000 0.000000
                        CHANNELS 3 Zrotation Xrotation Yrotation
                        JOINT RightHand
                        {
                            OFFSET -23.737446 0.000000 0.000000
                            CHANNELS 3 Zrotation Xrotation Yrotation
                            End Site
                            {
                                OFFSET -14.288324 0.000000 0.000000
                            }
                        }
                    }
                }
            }
        }
    }
    JOINT LeftUpLeg
    {
        OFFSET 9.525549 0.000000 0.000000
        CHANNELS 3 Zrotation Xrotation Yrotation
        JOINT LeftLeg
        {
            OFFSET -0.000000 -45.198063 0.000000
            CHANNELS 3 Zrotation Xrotation Yrotation
            JOINT LeftFoot
            {
                OFFSET -0.000000 -37.850700 0.000000
                CHANNELS 3 Zrotation Xrotation Yrotation
                JOINT LeftToeBase
                {
                    OFFSET -0.000000 -6.191607 14.288324
                    CHANNELS 3 Zrotation Xrotation Yrotation
                    End Site
                    {
                        OFFSET -0.000000 0.000000 3.810220
                    }
                }
            }
        }
    }
    JOINT RightUpLeg
    {
        OFFSET -9.525549 0.000000 0.000000
        CHANNELS 3 Zrotation Xrotation Yrotation
        JOINT RightLeg
        {
            OFFSET -0.000000 -45.198063 0.000000
            CHANNELS 3 Zrotation Xrotation Yrotation
            JOINT RightFoot
            {
                OFFSET -0.000000 -37.850700 0.000000
                CHANNELS 3 Zrotation Xrotation Yrotation
                JOINT RightToeBase
                {
                    OFFSET -0.000000 -6.191607 14.288324
                    CHANNELS 3 Zrotation Xrotation Yrotation
                    End Site
                    {
                        OFFSET -0.000000 0.000000 3.810220
                    }
                }
            }
        }
    }
}
MOTION
Frames:    13
Frame Time:    0.008333
0.993835    88.026993    5.382223    -2.752273    3.057542    -89.022324    -0.836563    -5.576291    -0.026742    -4.263205    2.657781    0.112327    13.613261    28.644732    -14.967064    1.746200    -22.023298    -13.330139    12.786931    -1.409156    -9.245524    -32.095234    -3.070874    -30.773075    -0.313722    -13.491392    -82.031525    14.045648    -11.273492    20.417013    -15.403707    -6.929151    1.335885    14.626213    -17.952524    -6.453437    -20.275749    -23.053394    82.721199    -28.817080    -3.903980    -6.232502    9.128620    -6.637590    3.905659    -7.960932    37.347492    0.761637    -2.670914    -17.650322    21.935080    0.000000    0.000000    0.000000    -5.905300    -1.974809    -1.922071    4.708156    36.416538    4.615640    0.656706    -14.935026    -27.491781    0.000000    0.000000    0.000000    
1.162851    87.138245    5.230904    -2.290949    2.741321    -88.777802    -0.975345    -5.592654    -0.231882    -4.192084    2.745446    -0.083632    13.141628    27.484465    -15.039503    1.812688    -21.733696    -13.602019    12.973463    -2.793312    -9.127987    -31.248972    -5.610285    -30.169586    -0.219724    -12.945744    -87.096977    15.320310    -10.393964    20.686100    -16.137825    -7.640925    1.134529    15.422115    -19.483265    -6.957924    -20.621597    -23.461145    85.598740    -28.764671    -3.014111    -6.383524    9.098883    -7.546070    4.732699    -8.031470    38.534252    0.343697    -1.013731    -20.231031    21.917850    0.000000    0.000000    0.000000    -6.324434    -3.007596    -2.260947    4.865677    38.254967    5.269424    -0.131816    -17.900337    -27.893423    0.000000    0.000000    0.000000    
1.348167    86.330719    5.045965    -1.643314    2.454424    -88.663147    -1.270627    -5.587873    -0.399610    -3.938094    2.170707    -0.263056    12.664493    27.358168    -15.256679    2.341553    -21.944414    -13.722412    12.905149    -3.830391    -9.330769    -30.301884    -8.001786    -29.251715    0.270361    -12.603233    -92.285973    16.293468    -9.326702    21.095188    -16.496376    -8.118713    1.277920    15.799066    -20.819164    -7.814138    -21.091671    -23.906618    88.553268    -29.022518    -1.975469    -6.254077    9.115515    -8.559258    5.621315    -8.035511    39.589211    -0.388575    0.680821    -22.512987    22.308910    0.000000    0.000000    0.000000    -6.655446    -4.177631    -2.802650    4.995883    39.794888    5.567554    -0.827632    -20.690954    -28.442410    0.000000    0.000000    0.000000    
1.494105    85.656204    4.823232    -1.015211    2.197206    -88.693077    -1.532918    -5.558022    -0.521705    -3.755811    1.209306    -0.407834    12.557357    27.720745    -15.489528    2.468530    -22.175411    -13.884001    12.765884    -4.377785    -9.671640    -29.291313    -11.128512    -28.355719    0.045885    -11.675033    -97.586502    17.538210    -8.418353    20.854761    -16.536621    -8.086099    1.713760    15.855007    -22.558285    -8.732184    -21.496025    -24.234301    91.774429    -29.124056    -0.600935    -6.378847    9.158379    -9.395779    6.427040    -8.064890    40.329704    -0.984166    2.225651    -24.427526    22.864389    0.000000    0.000000    0.000000    -6.870055    -5.157222    -3.460125    4.914029    40.993645    5.738354    -1.805800    -22.850389    -28.592585    0.000000    0.000000    0.000000    
1.565122    85.154984    4.581625    -0.596989    2.028176    -88.807373    -1.880567    -5.680657    -0.521150    -3.370188    0.875801    -0.402105    12.505519    27.751114    -15.702258    2.626400    -22.422697    -14.050220    12.808110    -5.264043    -10.009113    -28.687759    -14.236333    -27.700588    -0.212683    -10.585582    -102.562241    18.764503    -7.523575    20.146292    -16.617107    -8.153424    1.898726    15.763231    -23.943541    -9.707937    -22.182760    -25.022259    94.630424    -29.350147    0.685076    -6.891284    9.288597    -9.839258    7.101207    -8.161251    40.745594    -1.736231    3.669590    -25.847033    23.777344    0.000000    0.000000    0.000000    -6.869263    -5.704114    -4.213351    4.425459    41.658779    6.332912    -2.552395    -24.380991    -28.479103    0.000000    0.000000    0.000000    
1.536085    84.821205    4.324238    -0.491701    1.913081    -88.918053    -2.227314    -5.710428    -0.473037    -2.951771    0.798861    -0.341350    12.678596    27.636080    -15.999055    2.605532    -22.636768    -14.356067    12.973408    -6.354584    -10.299655    -28.434090    -17.469858    -27.292694    -0.536725    -9.372054    -107.398827    19.484413    -6.770292    19.358759    -16.598528    -8.386898    1.987312    15.317371    -25.424503    -10.762217    -22.767708    -25.649029    97.581085    -29.321894    2.315326    -7.782623    9.391762    -9.756159    7.509151    -8.206889    40.766541    -2.689785    5.040356    -26.844296    25.066746    0.000000    0.000000    0.000000    -6.726959    -5.649385    -5.064706    4.080507    41.647675    6.508935    -3.149895    -25.750710    -28.808834    0.000000    0.000000    0.000000    
1.434719    84.659157    4.060902    -0.596286    1.785530    -88.937447    -2.472291    -5.634747    -0.445987    -2.796016    0.770128    -0.305577    13.074373    27.606384    -16.296124    2.485056    -22.962257    -14.657063    13.340588    -7.343122    -10.439550    -28.595964    -20.445995    -27.233713    -0.708894    -8.460246    -111.752449    19.477240    -6.313172    18.529297    -16.392281    -8.866406    2.041178    14.497972    -26.777786    -11.883368    -22.738842    -25.940027    100.619820    -29.150089    3.622312    -8.329095    9.412883    -9.295382    7.500764    -8.331645    40.292923    -2.722474    5.817059    -27.361826    25.538183    0.000000    0.000000    0.000000    -6.560155    -5.101517    -5.877879    3.808825    41.008408    6.370676    -4.196328    -26.362230    -29.063204    0.000000    0.000000    0.000000    
1.283425    84.649696    3.778227    -0.826446    1.705363    -88.898232    -2.725151    -5.408435    -0.477044    -2.433732    0.572487    -0.336110    13.040465    28.070286    -16.576960    2.876297    -23.707960    -14.742893    13.445479    -8.125064    -10.483531    -29.079485    -23.245853    -27.412573    -0.509218    -7.799342    -115.737297    19.240211    -5.587916    17.758406    -16.522511    -9.221080    2.008654    14.134229    -27.716150    -12.532290    -22.814074    -26.664734    103.211769    -28.844612    4.296363    -8.337084    9.432663    -8.618430    7.237248    -8.393554    39.507492    -2.119529    5.892323    -27.557413    25.202511    0.000000    0.000000    0.000000    -6.245541    -4.212890    -6.929683    3.154188    39.911308    6.745028    -4.745275    -26.639622    -29.235920    0.000000    0.000000    0.000000    
1.131003    84.762505    3.473968    -1.031830    1.678491    -88.746971    -2.550660    -5.229404    -0.635673    -2.783103    0.351150    -0.510745    13.285403    28.428476    -16.648554    3.015051    -24.201429    -14.680243    13.957414    -8.656537    -10.304800    -29.047871    -25.791143    -27.633965    -0.195947    -7.533823    -119.118622    19.650951    -4.896492    17.097383    -16.276333    -9.818411    2.269840    13.772058    -28.119585    -13.120393    -22.734219    -27.678476    105.615303    -28.918201    4.459354    -8.451203    9.506961    -8.071962    6.942511    -8.281526    38.845821    -2.192412    5.692815    -27.311069    25.199799    0.000000    0.000000    0.000000    -5.849993    -3.195330    -7.819997    2.722440    38.424385    6.937742    -5.337419    -26.511507    -29.508757    0.000000    0.000000    0.000000    
0.972399    85.003960    3.169899    -1.149971    1.642003    -88.545921    -2.402122    -5.107091    -0.767498    -3.121874    0.050433    -0.659016    13.584444    28.740564    -16.770344    3.055799    -24.571926    -14.703573    14.458964    -9.187167    -10.259830    -29.356157    -27.949192    -27.906784    -0.035902    -7.619976    -122.438927    19.548367    -4.742396    17.035784    -16.067249    -10.257137    2.366610    13.169445    -28.858610    -13.615872    -22.105665    -28.034071    108.230621    -29.346016    4.785687    -8.717340    9.542950    -7.635803    6.337717    -8.265042    38.047619    -1.840718    5.056981    -26.624226    24.885452    0.000000    0.000000    0.000000    -5.417431    -2.176463    -8.685513    2.133597    36.694904    7.301920    -5.646659    -26.003855    -29.554653    0.000000    0.000000    0.000000    
0.851184    85.359940    2.826662    -1.156277    1.694875    -88.301003    -2.322738    -4.968158    -0.900154    -3.242694    -0.407288    -0.810867    14.133888    28.844736    -17.010248    2.579995    -24.745178    -15.030134    14.800304    -9.629650    -10.340693    -29.466928    -30.678822    -28.441185    -0.025457    -6.883952    -125.290138    20.312563    -3.915642    16.777367    -15.985937    -10.597895    2.370594    12.593870    -29.690689    -13.962686    -21.741390    -28.305359    110.417015    -29.900244    5.370469    -8.931529    9.734861    -7.365430    5.692496    -8.361073    37.216244    -1.384974    4.191291    -25.539238    24.477957    0.000000    0.000000    0.000000    -4.842002    -1.267099    -9.181002    1.712650    34.825001    7.586191    -5.902865    -24.886267    -29.672745    0.000000    0.000000    0.000000    
0.735928    85.835419    2.494593    -1.058754    1.658948    -88.098656    -2.249139    -4.906923    -1.006081    -3.509051    -0.986009    -0.939920    14.313822    29.030619    -17.192072    2.694365    -24.629665    -15.132430    15.327726    -9.799383    -10.542386    -29.699615    -32.895126    -28.775543    0.413823    -7.076049    -128.041565    20.823469    -3.210992    16.367805    -15.833418    -10.705331    2.395109    11.947701    -30.578524    -14.184113    -21.665066    -28.670218    112.228821    -29.689543    6.092159    -9.301222    9.800270    -7.114676    5.004168    -8.418456    36.177017    -0.963525    3.148477    -24.038172    24.141233    0.000000    0.000000    0.000000    -4.415864    -0.495706    -9.235150    1.561810    32.907307    7.533420    -5.585177    -23.627741    -29.629326    0.000000    0.000000    0.000000    
0.589621    86.417862    2.143781    -1.055751    1.746448    -87.883476    -2.082478    -4.908744    -1.042463    -3.821208    -1.300096    -0.996594    15.477827    28.939342    -17.652077    1.551678    -24.686043    -15.870843    15.911959    -10.114521    -11.086824    -29.802975    -35.812309    -28.664118    0.199600    -6.236417    -130.687698    21.688751    -2.757065    15.827450    -15.614881    -10.882953    2.193711    11.436177    -31.374918    -13.993254    -22.065884    -29.326056    113.259003    -29.053713    6.788019    -9.737849    9.960730    -6.748291    4.463324    -8.236962    35.056824    -0.519415    1.900348    -22.217178    23.544216    0.000000    0.000000    0.000000    -3.931790    0.350719    -8.878746    1.662095    31.075659    7.448745    -4.762682    -22.142456    -29.539591    0.000000    0.000000    0.000000    
